<?xml version="1.0" encoding="utf-8"?>
<!-- Generator: Adobe Illustrator 22.0.1, SVG Export Plug-In . SVG Version: 6.00 Build 0)  -->
<svg version="1.1" id="Layer_1" xmlns="http://www.w3.org/2000/svg" xmlns:xlink="http://www.w3.org/1999/xlink" x="0px" y="0px"
	 viewBox="0 0 300 200" style="enable-background:new 0 0 300 200;" xml:space="preserve">
<style type="text/css">
	.st0{fill:none;stroke:#070707;stroke-miterlimit:10;}
	.st1{fill:#DDB372;stroke:#070707;stroke-miterlimit:10;}
	.st2{fill:none;stroke:#AF8752;stroke-miterlimit:10;}
	.st3{fill:none;stroke:#AF8043;stroke-miterlimit:10;}
	.st4{fill:none;stroke:#9B7748;stroke-miterlimit:10;}
	.st5{fill:#FFFFFF;stroke:#000000;stroke-miterlimit:10;}
	.st6{fill:#C1BFBC;stroke:#070707;stroke-miterlimit:10;}
	.st7{fill:none;stroke:#F4F4F4;stroke-width:0.25;stroke-miterlimit:10;}
	.st8{fill:none;}
	.st9{fill:#9B273D;stroke:#000000;}
	.st10{font-family:'CooperBlackStd';}
	.st11{font-size:59.8931px;}
	.st12{fill:#A03F3F;stroke:#070707;stroke-miterlimit:10;}
	.st13{fill:#F9F9F9;stroke:#070707;stroke-miterlimit:10;}
</style>
<g>
	<path class="st0" d="M79.1,95.3"/>
	
		<rect x="76.5" y="86.8" transform="matrix(1 -8.104004e-03 8.104004e-03 1 -0.7407 0.7887)" class="st1" width="40.8" height="10"/>
	<line class="st2" x1="81.1" y1="90.3" x2="93.6" y2="90.2"/>
	<line class="st3" x1="89.5" y1="94.3" x2="102" y2="94.2"/>
	<line class="st4" x1="105.7" y1="90.1" x2="112.8" y2="90"/>
	<path class="st5" d="M115.1,107.4"/>
	<path class="st6" d="M107.7,126.3c0,0-7.1,4.4-15.7,1l3.3-55c0,0-3.4-0.1-3.7-3.8c0,0-0.6-2.9-1.8-2.4c0,0-10.6,16.5-12.3,12.3
		c0,0,3-18.2,16.5-24.7c0,0,10.2-5.1,14.5-1l9.6-0.4c0,0-0.2-0.9,1.5-0.9c0,0,3.4-0.7,3.6,0.8c0,0,1.7,14.1-0.8,12.5
		c0,0-0.9,2.3-4.9,0.4l-10.2-1c0,0,0.7,7.1-1.5,7.2L107.7,126.3z"/>
	<path class="st7" d="M85.1,63.8c0.3-0.3,0.5-0.7,0.8-1c0.5-0.7,1.1-1.5,2-2"/>
	<path class="st7" d="M101.2,53.2c0.9-0.4,2-0.4,3-0.2c0.9,0.2,1.7,0.7,2.5,1.1"/>
	
		<rect x="15.6" y="77.2" transform="matrix(1 -8.104004e-03 8.104004e-03 1 -0.9362 0.4497)" class="st8" width="78.8" height="77.2"/>
	<text transform="matrix(1.0011 -8.109977e-03 8.119264e-03 1 15.6499 119.4599)" class="st9 st10 st11">M</text>
	<path class="st12" d="M92.2,124.5c0,0,6.2,3,15.4-0.1l-1.8-29.2c0,0-4.6,6.2-10.8,0.1L92.2,124.5z"/>
	<path class="st12" d="M94.8,72.2"/>
	<path class="st13" d="M105.5,72.1"/>
	<path class="st13" d="M94.8,72.2"/>
	
		<rect x="124.4" y="76.7" transform="matrix(1 -8.102845e-03 8.102845e-03 1 -0.882 1.6975)" class="st8" width="169.4" height="66"/>
	<text transform="matrix(1.0011 -8.109977e-03 8.119264e-03 1 124.429 119.3463)" class="st9 st10 st11">Bolig</text>
</g>
</svg>
